# MagicaVoxel @ Ephtracy

# group
o Bernard

# material
mtllib Bernard_tail_lower.mtl
usemtl palette

# normals
vn -1 0 0
vn 1 0 0
vn 0 0 1
vn 0 0 -1
vn 0 -1 0
vn 0 1 0

# texcoords
vt 0.228516 0.5
vt 0.880859 0.5
vt 0.962891 0.5

# verts
v -0.2 0.1 0.1
v -0.2 0.1 -0.1
v -0.2 0.7 0
v -0.2 0.7 -0.1
v -0.2 1.2 0.2
v -0.2 1.2 0.1
v -0.2 1.2 0
v -0.2 1.3 0.2
v -0.2 1.3 0.1
v -0.2 1.3 -0.1
v -0.1 0 0.1
v -0.1 0 -0.1
v -0.1 0.1 0.2
v -0.1 0.1 0.1
v -0.1 0.1 -0.1
v -0.1 0.1 -0.2
v -0.1 0.5 -0.1
v -0.1 0.5 -0.2
v -0.1 0.7 -0.1
v -0.1 0.8 -0.1
v -0.1 0.8 -0.2
v -0.1 1.2 0.2
v -0.1 1.2 0.1
v -0.1 1.3 -0.1
v -0.1 1.3 -0.2
v 0.1 0 0.1
v 0.1 0 -0.1
v 0.1 0.1 0.2
v 0.1 0.1 0.1
v 0.1 0.1 -0.1
v 0.1 0.1 -0.2
v 0.1 0.5 -0.1
v 0.1 0.5 -0.2
v 0.1 1.2 0.2
v 0.1 1.2 0.1
v 0.1 1.2 -0.1
v 0.1 1.3 -0.1
v 0.1 1.3 -0.2
v 0.2 0.1 0.1
v 0.2 0.1 -0.1
v 0.2 1.2 0.2
v 0.2 1.2 0.1
v 0.2 1.2 0
v 0.2 1.2 -0.1
v 0.2 1.3 0.2
v 0.2 1.3 0
v 0.2 1.3 -0.1
v -0.2 1.2 0.2
v -0.2 1.3 0.2
v -0.1 0.1 0.2
v -0.1 1.2 0.2
v 0.1 0.1 0.2
v 0.1 1.2 0.2
v 0.2 1.2 0.2
v 0.2 1.3 0.2
v -0.2 0.1 0.1
v -0.2 1.2 0.1
v -0.1 0 0.1
v -0.1 0.1 0.1
v -0.1 1.2 0.1
v 0.1 0 0.1
v 0.1 0.1 0.1
v 0.1 1.2 0.1
v 0.2 0.1 0.1
v 0.2 1.2 0.1
v -0.2 0.1 -0.1
v -0.2 0.7 -0.1
v -0.2 1.3 -0.1
v -0.1 0 -0.1
v -0.1 0.1 -0.1
v -0.1 0.5 -0.1
v -0.1 0.7 -0.1
v -0.1 0.8 -0.1
v -0.1 1.3 -0.1
v 0.1 0 -0.1
v 0.1 0.1 -0.1
v 0.1 0.5 -0.1
v 0.1 1.2 -0.1
v 0.1 1.3 -0.1
v 0.2 0.1 -0.1
v 0.2 1.2 -0.1
v 0.2 1.3 -0.1
v -0.1 0.1 -0.2
v -0.1 0.5 -0.2
v -0.1 0.8 -0.2
v -0.1 1.3 -0.2
v 0 0.5 -0.2
v 0 0.8 -0.2
v 0.1 0.1 -0.2
v 0.1 0.5 -0.2
v 0.1 1.3 -0.2
v -0.1 0 0.1
v 0.1 0 0.1
v -0.1 0 -0.1
v 0.1 0 -0.1
v -0.1 0.1 0.2
v 0.1 0.1 0.2
v -0.2 0.1 0.1
v -0.1 0.1 0.1
v 0.1 0.1 0.1
v 0.2 0.1 0.1
v -0.2 0.1 -0.1
v -0.1 0.1 -0.1
v 0.1 0.1 -0.1
v 0.2 0.1 -0.1
v -0.1 0.1 -0.2
v 0.1 0.1 -0.2
v -0.2 1.2 0.2
v -0.1 1.2 0.2
v 0.1 1.2 0.2
v 0.2 1.2 0.2
v -0.2 1.2 0.1
v -0.1 1.2 0.1
v 0.1 1.2 0.1
v 0.2 1.2 0.1
v -0.2 1.3 0.2
v 0.2 1.3 0.2
v -0.2 1.3 0.1
v -0.1 1.3 0.1
v 0.1 1.3 0
v 0.2 1.3 0
v -0.2 1.3 -0.1
v -0.1 1.3 -0.1
v 0.1 1.3 -0.1
v 0.2 1.3 -0.1
v -0.1 1.3 -0.2
v 0.1 1.3 -0.2

# faces
f 3/3/1 2/3/1 1/3/1
f 4/3/1 2/3/1 3/3/1
f 6/3/1 3/3/1 1/3/1
f 7/2/1 4/2/1 3/2/1
f 7/3/1 3/3/1 6/3/1
f 8/3/1 6/3/1 5/3/1
f 9/2/1 7/2/1 6/2/1
f 9/3/1 6/3/1 8/3/1
f 10/2/1 4/2/1 7/2/1
f 10/2/1 7/2/1 9/2/1
f 14/3/1 12/3/1 11/3/1
f 15/3/1 12/3/1 14/3/1
f 17/3/1 16/3/1 15/3/1
f 18/3/1 16/3/1 17/3/1
f 19/2/1 18/2/1 17/2/1
f 20/2/1 18/2/1 19/2/1
f 21/2/1 18/2/1 20/2/1
f 22/3/1 14/3/1 13/3/1
f 23/3/1 14/3/1 22/3/1
f 24/1/1 21/1/1 20/1/1
f 25/1/1 21/1/1 24/1/1
f 26/3/2 27/3/2 29/3/2
f 29/3/2 27/3/2 30/3/2
f 30/3/2 31/3/2 32/3/2
f 32/3/2 31/3/2 33/3/2
f 28/3/2 29/3/2 34/3/2
f 34/3/2 29/3/2 35/3/2
f 32/1/2 33/1/2 36/1/2
f 36/1/2 33/1/2 37/1/2
f 37/1/2 33/1/2 38/1/2
f 39/3/2 40/3/2 42/3/2
f 42/3/2 40/3/2 43/3/2
f 43/3/2 40/3/2 44/3/2
f 41/3/2 42/3/2 45/3/2
f 42/3/2 43/3/2 45/3/2
f 43/1/2 44/1/2 46/1/2
f 45/3/2 43/3/2 46/3/2
f 46/1/2 44/1/2 47/1/2
f 51/3/3 49/3/3 48/3/3
f 52/3/3 51/3/3 50/3/3
f 53/3/3 49/3/3 51/3/3
f 53/3/3 51/3/3 52/3/3
f 54/3/3 49/3/3 53/3/3
f 55/3/3 49/3/3 54/3/3
f 59/3/3 57/3/3 56/3/3
f 60/3/3 57/3/3 59/3/3
f 61/3/3 59/3/3 58/3/3
f 62/3/3 59/3/3 61/3/3
f 64/3/3 63/3/3 62/3/3
f 65/3/3 63/3/3 64/3/3
f 66/3/4 67/3/4 70/3/4
f 70/3/4 67/3/4 71/3/4
f 67/2/4 68/2/4 72/2/4
f 71/3/4 67/3/4 72/3/4
f 72/2/4 68/2/4 73/2/4
f 73/2/4 68/2/4 74/2/4
f 69/3/4 70/3/4 75/3/4
f 75/3/4 70/3/4 76/3/4
f 76/3/4 77/3/4 80/3/4
f 77/3/4 78/3/4 80/3/4
f 78/1/4 79/1/4 81/1/4
f 80/3/4 78/3/4 81/3/4
f 81/1/4 79/1/4 82/1/4
f 83/3/4 84/3/4 87/3/4
f 84/2/4 85/2/4 87/2/4
f 85/1/4 86/1/4 88/1/4
f 87/2/4 85/2/4 88/2/4
f 83/3/4 87/3/4 89/3/4
f 87/1/4 88/1/4 90/1/4
f 89/3/4 87/3/4 90/3/4
f 88/1/4 86/1/4 91/1/4
f 90/1/4 88/1/4 91/1/4
f 94/3/5 93/3/5 92/3/5
f 95/3/5 93/3/5 94/3/5
f 99/3/5 97/3/5 96/3/5
f 100/3/5 97/3/5 99/3/5
f 102/3/5 99/3/5 98/3/5
f 103/3/5 99/3/5 102/3/5
f 104/3/5 101/3/5 100/3/5
f 105/3/5 101/3/5 104/3/5
f 106/3/5 104/3/5 103/3/5
f 107/3/5 104/3/5 106/3/5
f 112/3/5 109/3/5 108/3/5
f 113/3/5 109/3/5 112/3/5
f 114/3/5 111/3/5 110/3/5
f 115/3/5 111/3/5 114/3/5
f 116/3/6 117/3/6 118/3/6
f 118/3/6 117/3/6 119/3/6
f 119/3/6 117/3/6 120/3/6
f 120/3/6 117/3/6 121/3/6
f 118/2/6 119/2/6 122/2/6
f 119/3/6 120/3/6 123/3/6
f 122/2/6 119/2/6 123/2/6
f 120/1/6 121/1/6 124/1/6
f 123/3/6 120/3/6 124/3/6
f 124/1/6 121/1/6 125/1/6
f 123/1/6 124/1/6 126/1/6
f 126/1/6 124/1/6 127/1/6
