# MagicaVoxel @ Ephtracy

# group
o Bernard

# material
mtllib Bernard_Leg_Back_Left_Lower.mtl
usemtl palette

# normals
vn -1 0 0
vn 1 0 0
vn 0 0 1
vn 0 0 -1
vn 0 -1 0
vn 0 1 0

# texcoords
vt 0.228516 0.5
vt 0.880859 0.5
vt 0.962891 0.5

# verts
v -0.1 -0.5 0.1
v -0.1 -0.5 -0.2
v -0.1 -0.3 -0.1
v -0.1 -0.3 -0.2
v -0.1 0 0.2
v -0.1 0 0.1
v -0.1 0.2 0.2
v -0.1 0.2 0.1
v -0.1 0.3 0.3
v -0.1 0.3 0.2
v -0.1 0.3 0.1
v -0.1 0.5 0.3
v -0.1 0.5 0.2
v -0.1 0.6 0.3
v -0.1 0.6 -0.1
v 0 -0.5 0.2
v 0 -0.5 0.1
v 0 -0.5 -0.2
v 0 -0.5 -0.3
v 0 -0.3 -0.1
v 0 -0.3 -0.2
v 0 -0.3 -0.3
v 0 0 0.2
v 0 0 0.1
v 0 0.6 -0.1
v 0 0.6 -0.2
v 0 0.3 0.3
v 0 0.3 0.2
v 0 0.5 0.3
v 0 0.5 0.2
v 0.1 -0.5 0.2
v 0.1 -0.5 0.1
v 0.1 -0.5 -0.2
v 0.1 -0.5 -0.3
v 0.1 -0.3 -0.1
v 0.1 -0.3 -0.2
v 0.1 -0.3 -0.3
v 0.1 0.3 0.2
v 0.1 0.3 0.1
v 0.1 0.4 0.2
v 0.1 0.4 0.1
v 0.1 0.5 0.3
v 0.1 0.5 0.2
v 0.1 0.6 0.3
v 0.1 0.6 0.2
v 0.1 0.6 -0.1
v 0.1 0.6 -0.2
v 0.2 -0.5 0.1
v 0.2 -0.5 -0.2
v 0.2 -0.3 -0.1
v 0.2 -0.3 -0.2
v 0.2 0.4 0.2
v 0.2 0.4 0.1
v 0.2 0.5 0.1
v 0.2 0.5 0
v 0.2 0.6 0.2
v 0.2 0.6 0
v 0.2 0.6 -0.1
v -0.1 0.3 0.3
v -0.1 0.5 0.3
v -0.1 0.6 0.3
v 0 0.3 0.3
v 0 0.5 0.3
v 0 0.6 0.3
v 0.1 0.5 0.3
v 0.1 0.6 0.3
v -0.1 0 0.2
v -0.1 0.2 0.2
v -0.1 0.3 0.2
v 0 -0.5 0.2
v 0 0 0.2
v 0 0.2 0.2
v 0 0.3 0.2
v 0 0.5 0.2
v 0.1 -0.5 0.2
v 0.1 0.3 0.2
v 0.1 0.4 0.2
v 0.1 0.5 0.2
v 0.1 0.6 0.2
v 0.2 0.4 0.2
v 0.2 0.6 0.2
v -0.1 -0.5 0.1
v -0.1 0 0.1
v 0 -0.5 0.1
v 0 0 0.1
v 0.1 -0.5 0.1
v 0.1 0.3 0.1
v 0.1 0.4 0.1
v 0.2 -0.5 0.1
v 0.2 0.4 0.1
v -0.1 -0.3 -0.1
v -0.1 0.6 -0.1
v 0 -0.3 -0.1
v 0 0.6 -0.1
v 0.1 -0.3 -0.1
v 0.1 0.6 -0.1
v 0.2 -0.3 -0.1
v 0.2 0.6 -0.1
v -0.1 -0.5 -0.2
v -0.1 -0.3 -0.2
v 0 -0.5 -0.2
v 0 -0.3 -0.2
v 0 0.6 -0.2
v 0.1 -0.5 -0.2
v 0.1 -0.3 -0.2
v 0.1 0.6 -0.2
v 0.2 -0.5 -0.2
v 0.2 -0.3 -0.2
v 0 -0.5 -0.3
v 0 -0.3 -0.3
v 0.1 -0.5 -0.3
v 0.1 -0.3 -0.3
v 0 -0.5 0.2
v 0.1 -0.5 0.2
v -0.1 -0.5 0.1
v 0 -0.5 0.1
v 0.1 -0.5 0.1
v 0.2 -0.5 0.1
v -0.1 -0.5 -0.2
v 0 -0.5 -0.2
v 0.1 -0.5 -0.2
v 0.2 -0.5 -0.2
v 0 -0.5 -0.3
v 0.1 -0.5 -0.3
v -0.1 0 0.2
v 0 0 0.2
v -0.1 0 0.1
v 0 0 0.1
v -0.1 0.3 0.3
v 0 0.3 0.3
v -0.1 0.3 0.2
v 0 0.3 0.2
v 0.1 0.4 0.2
v 0.2 0.4 0.2
v 0.1 0.4 0.1
v 0.2 0.4 0.1
v 0 0.5 0.3
v 0.1 0.5 0.3
v 0 0.5 0.2
v 0.1 0.5 0.2
v -0.1 -0.3 -0.1
v 0 -0.3 -0.1
v 0.1 -0.3 -0.1
v 0.2 -0.3 -0.1
v -0.1 -0.3 -0.2
v 0 -0.3 -0.2
v 0.1 -0.3 -0.2
v 0.2 -0.3 -0.2
v 0 -0.3 -0.3
v 0.1 -0.3 -0.3
v -0.1 0.6 0.3
v 0 0.6 0.3
v 0.1 0.6 0.3
v 0 0.6 0.2
v 0.1 0.6 0.2
v 0.2 0.6 0.2
v 0.1 0.6 0
v 0.2 0.6 0
v -0.1 0.6 -0.1
v 0 0.6 -0.1
v 0.1 0.6 -0.1
v 0.2 0.6 -0.1
v 0 0.6 -0.2
v 0.1 0.6 -0.2

# faces
f 3/3/1 2/3/1 1/3/1
f 4/3/1 2/3/1 3/3/1
f 6/3/1 3/3/1 1/3/1
f 7/3/1 6/3/1 5/3/1
f 8/3/1 3/3/1 6/3/1
f 8/3/1 6/3/1 7/3/1
f 10/1/1 8/1/1 7/1/1
f 11/3/1 3/3/1 8/3/1
f 11/1/1 8/1/1 10/1/1
f 12/2/1 10/2/1 9/2/1
f 13/3/1 11/3/1 10/3/1
f 13/2/1 10/2/1 12/2/1
f 14/3/1 13/3/1 12/3/1
f 15/3/1 3/3/1 11/3/1
f 15/3/1 13/3/1 14/3/1
f 15/3/1 11/3/1 13/3/1
f 21/3/1 19/3/1 18/3/1
f 22/3/1 19/3/1 21/3/1
f 23/3/1 17/3/1 16/3/1
f 24/3/1 17/3/1 23/3/1
f 25/3/1 21/3/1 20/3/1
f 26/3/1 21/3/1 25/3/1
f 27/2/2 28/2/2 29/2/2
f 29/2/2 28/2/2 30/2/2
f 33/3/2 34/3/2 36/3/2
f 36/3/2 34/3/2 37/3/2
f 31/3/2 32/3/2 38/3/2
f 38/3/2 32/3/2 39/3/2
f 38/1/2 39/1/2 40/1/2
f 40/1/2 39/1/2 41/1/2
f 42/2/2 43/2/2 44/2/2
f 44/2/2 43/2/2 45/2/2
f 35/3/2 36/3/2 46/3/2
f 46/3/2 36/3/2 47/3/2
f 48/3/2 49/3/2 50/3/2
f 50/3/2 49/3/2 51/3/2
f 48/3/2 50/3/2 53/3/2
f 53/3/2 50/3/2 54/3/2
f 52/1/2 53/1/2 54/1/2
f 54/3/2 50/3/2 55/3/2
f 52/1/2 54/1/2 56/1/2
f 54/1/2 55/1/2 56/1/2
f 55/3/2 50/3/2 57/3/2
f 56/1/2 55/1/2 57/1/2
f 57/3/2 50/3/2 58/3/2
f 62/2/3 60/2/3 59/2/3
f 63/3/3 61/3/3 60/3/3
f 63/2/3 60/2/3 62/2/3
f 64/3/3 61/3/3 63/3/3
f 65/2/3 64/2/3 63/2/3
f 66/2/3 64/2/3 65/2/3
f 71/3/3 68/3/3 67/3/3
f 72/1/3 69/1/3 68/1/3
f 72/3/3 68/3/3 71/3/3
f 73/1/3 69/1/3 72/1/3
f 75/3/3 71/3/3 70/3/3
f 75/3/3 72/3/3 71/3/3
f 75/3/3 73/3/3 72/3/3
f 76/1/3 74/1/3 73/1/3
f 76/3/3 73/3/3 75/3/3
f 77/1/3 74/1/3 76/1/3
f 78/1/3 74/1/3 77/1/3
f 80/1/3 79/1/3 78/1/3
f 80/1/3 78/1/3 77/1/3
f 81/1/3 79/1/3 80/1/3
f 84/3/3 83/3/3 82/3/3
f 85/3/3 83/3/3 84/3/3
f 89/3/3 87/3/3 86/3/3
f 89/3/3 88/3/3 87/3/3
f 90/3/3 88/3/3 89/3/3
f 91/3/4 92/3/4 93/3/4
f 93/3/4 92/3/4 94/3/4
f 95/3/4 96/3/4 97/3/4
f 97/3/4 96/3/4 98/3/4
f 99/3/4 100/3/4 101/3/4
f 101/3/4 100/3/4 102/3/4
f 102/3/4 103/3/4 105/3/4
f 105/3/4 103/3/4 106/3/4
f 104/3/4 105/3/4 107/3/4
f 107/3/4 105/3/4 108/3/4
f 109/3/4 110/3/4 111/3/4
f 111/3/4 110/3/4 112/3/4
f 116/3/5 114/3/5 113/3/5
f 117/3/5 114/3/5 116/3/5
f 119/3/5 116/3/5 115/3/5
f 119/3/5 118/3/5 117/3/5
f 119/3/5 117/3/5 116/3/5
f 120/3/5 118/3/5 119/3/5
f 121/3/5 118/3/5 120/3/5
f 122/3/5 118/3/5 121/3/5
f 123/3/5 121/3/5 120/3/5
f 124/3/5 121/3/5 123/3/5
f 127/3/5 126/3/5 125/3/5
f 128/3/5 126/3/5 127/3/5
f 131/2/5 130/2/5 129/2/5
f 132/2/5 130/2/5 131/2/5
f 135/1/5 134/1/5 133/1/5
f 136/1/5 134/1/5 135/1/5
f 139/2/5 138/2/5 137/2/5
f 140/2/5 138/2/5 139/2/5
f 141/3/6 142/3/6 145/3/6
f 145/3/6 142/3/6 146/3/6
f 143/3/6 144/3/6 147/3/6
f 147/3/6 144/3/6 148/3/6
f 146/3/6 147/3/6 149/3/6
f 149/3/6 147/3/6 150/3/6
f 151/3/6 152/3/6 154/3/6
f 152/2/6 153/2/6 154/2/6
f 154/2/6 153/2/6 155/2/6
f 154/3/6 155/3/6 157/3/6
f 155/1/6 156/1/6 157/1/6
f 157/1/6 156/1/6 158/1/6
f 151/3/6 154/3/6 159/3/6
f 154/3/6 157/3/6 159/3/6
f 157/3/6 158/3/6 159/3/6
f 159/3/6 158/3/6 160/3/6
f 160/3/6 158/3/6 161/3/6
f 161/3/6 158/3/6 162/3/6
f 160/3/6 161/3/6 163/3/6
f 163/3/6 161/3/6 164/3/6
