# MagicaVoxel @ Ephtracy

# group
o Bernard

# material
mtllib Bernard_Leg_Back_Left_Upper.mtl
usemtl palette

# normals
vn -1 0 0
vn 1 0 0
vn 0 0 1
vn 0 0 -1
vn 0 -1 0
vn 0 1 0

# texcoords
vt 0.228516 0.5
vt 0.880859 0.5
vt 0.962891 0.5

# verts
v -0.2 -0.8 0.3
v -0.2 -0.8 -0.2
v -0.2 -0.7 0.4
v -0.2 -0.7 0.3
v -0.2 -0.4 0.5
v -0.2 -0.4 0.4
v -0.2 -0.4 -0.2
v -0.2 -0.4 -0.4
v -0.2 -0.3 -0.4
v -0.2 -0.3 -0.5
v -0.2 0 -0.5
v -0.2 0 -0.6
v -0.2 0.1 0.6
v -0.2 0.1 0.5
v -0.2 0.2 0.6
v -0.2 0.2 0.5
v -0.2 0.4 0.6
v -0.2 0.4 0.4
v -0.2 0.4 -0.5
v -0.2 0.4 -0.6
v -0.2 0.6 0.4
v -0.2 0.6 0.3
v -0.2 0.6 -0.4
v -0.2 0.6 -0.5
v -0.2 0.7 0.3
v -0.2 0.7 0.1
v -0.2 0.7 -0.2
v -0.2 0.7 -0.4
v -0.2 0.8 0.1
v -0.2 0.8 -0.2
v -0.1 -0.8 -0.2
v -0.1 -0.8 -0.3
v -0.1 -0.6 -0.3
v -0.1 -0.6 -0.4
v -0.1 -0.5 -0.2
v -0.1 -0.5 -0.3
v -0.1 -0.4 -0.2
v -0.1 -0.4 -0.4
v -0.1 -0.1 -0.5
v -0.1 -0.1 -0.6
v -0.1 0 -0.5
v -0.1 0 -0.6
v -0.1 0 -0.7
v -0.1 0.3 -0.6
v -0.1 0.3 -0.7
v -0.1 -0.8 0.3
v -0.1 -0.8 0.2
v -0.1 -0.7 0.4
v -0.1 -0.7 0.3
v -0.1 -0.7 0.2
v -0.1 -0.6 0.4
v -0.1 -0.6 0.3
v -0.1 -0.4 0.5
v -0.1 -0.4 0.4
v -0.1 -0.3 0.5
v -0.1 -0.3 0.4
v 0 -0.8 -0.2
v 0 -0.8 -0.3
v 0 -0.7 0.3
v 0 -0.7 0.2
v 0 -0.6 0.4
v 0 -0.6 0.3
v 0 -0.6 0.2
v 0 -0.6 -0.3
v 0 -0.6 -0.4
v 0 -0.5 0.4
v 0 -0.5 0.3
v 0 -0.5 -0.2
v 0 -0.5 -0.3
v 0 -0.4 -0.3
v 0 -0.4 -0.4
v 0 -0.3 0.5
v 0 -0.3 0.4
v 0 -0.3 -0.4
v 0 -0.3 -0.5
v 0 -0.2 0.4
v 0 -0.1 0.5
v 0 -0.1 0.4
v 0 -0.1 -0.4
v 0 -0.1 -0.5
v 0 -0.1 -0.6
v 0 0 0.4
v 0 0 -0.6
v 0 0 -0.7
v 0 0.1 0.6
v 0 0.1 0.5
v 0 0.1 0.4
v 0 0.2 0.6
v 0 0.2 0.5
v 0 0.3 0.5
v 0 0.3 0.4
v 0 0.3 -0.4
v 0 0.3 -0.5
v 0 0.3 -0.6
v 0 0.3 -0.7
v 0 0.4 0.6
v 0 0.4 0.4
v 0 0.4 0.3
v 0 0.4 -0.3
v 0 0.4 -0.4
v 0 0.4 -0.5
v 0 0.4 -0.6
v 0 0.5 0.3
v 0 0.5 0.2
v 0 0.5 -0.2
v 0 0.5 -0.3
v 0 0.6 0.4
v 0 0.6 0.3
v 0 0.6 0.2
v 0 0.6 -0.2
v 0 0.6 -0.4
v 0 0.6 -0.5
v 0 0.7 0.3
v 0 0.7 0.1
v 0 0.7 -0.2
v 0 0.7 -0.4
v 0 0.8 0.1
v 0 0.8 -0.2
v 0.1 -0.8 0.2
v 0.1 -0.8 -0.2
v 0.1 -0.7 0.2
v 0.1 -0.7 0.1
v 0.1 -0.7 5.96046e-008
v 0.1 -0.7 -0.1
v 0.1 -0.6 0.3
v 0.1 -0.6 0.2
v 0.1 -0.6 0.1
v 0.1 -0.6 5.96046e-008
v 0.1 -0.5 0.4
v 0.1 -0.5 0.3
v 0.1 -0.5 0.2
v 0.1 -0.5 0.1
v 0.1 -0.5 -0.2
v 0.1 -0.5 -0.3
v 0.1 -0.4 0.3
v 0.1 -0.4 0.2
v 0.1 -0.4 0.1
v 0.1 -0.4 -0.3
v 0.1 -0.4 -0.4
v 0.1 -0.3 -0.1
v 0.1 -0.3 -0.2
v 0.1 -0.3 -0.3
v 0.1 -0.3 -0.4
v 0.1 -0.2 0.4
v 0.1 -0.2 0.3
v 0.1 -0.2 0.2
v 0.1 -0.1 0.3
v 0.1 -0.1 -0.2
v 0.1 -0.1 -0.3
v 0.1 -0.1 -0.4
v 0.1 -0.1 -0.5
v 0.1 0 0.4
v 0.1 0 0.3
v 0.1 0.1 0.5
v 0.1 0.1 0.4
v 0.1 0.2 0.3
v 0.1 0.2 0.1
v 0.1 0.2 -0.2
v 0.1 0.2 -0.3
v 0.1 0.3 0.5
v 0.1 0.3 0.4
v 0.1 0.3 0.1
v 0.1 0.3 5.96046e-008
v 0.1 0.3 -0.1
v 0.1 0.3 -0.2
v 0.1 0.3 -0.4
v 0.1 0.3 -0.5
v 0.1 0.4 0.4
v 0.1 0.4 0.3
v 0.1 0.4 5.96046e-008
v 0.1 0.4 -0.1
v 0.1 0.4 -0.3
v 0.1 0.4 -0.4
v 0.1 0.5 0.3
v 0.1 0.5 0.2
v 0.1 0.5 -0.2
v 0.1 0.5 -0.3
v 0.1 0.6 0.2
v 0.1 0.6 -0.2
v 0.2 -0.7 5.96046e-008
v 0.2 -0.7 -0.1
v 0.2 -0.6 0.1
v 0.2 -0.6 5.96046e-008
v 0.2 -0.4 0.2
v 0.2 -0.4 0.1
v 0.2 -0.3 -0.1
v 0.2 -0.3 -0.2
v 0.2 -0.2 0.3
v 0.2 -0.2 0.2
v 0.2 -0.2 0.1
v 0.2 -0.1 0.3
v 0.2 -0.1 0.2
v 0.2 -0.1 -0.2
v 0.2 -0.1 -0.3
v 0.2 0.2 0.3
v 0.2 0.2 0.1
v 0.2 0.2 -0.2
v 0.2 0.2 -0.3
v 0.2 0.3 0.1
v 0.2 0.3 5.96046e-008
v 0.2 0.3 -0.1
v 0.2 0.3 -0.2
v 0.2 0.4 5.96046e-008
v 0.2 0.4 -0.1
v -0.2 0.1 0.6
v -0.2 0.2 0.6
v -0.2 0.4 0.6
v -0.1 0.2 0.6
v -0.1 0.4 0.6
v 0 0.1 0.6
v 0 0.2 0.6
v 0 0.4 0.6
v -0.2 -0.4 0.5
v -0.2 0.1 0.5
v -0.1 -0.4 0.5
v -0.1 -0.3 0.5
v -0.1 -0.1 0.5
v -0.1 0.1 0.5
v 0 -0.3 0.5
v 0 -0.1 0.5
v 0 0.1 0.5
v 0 0.2 0.5
v 0 0.3 0.5
v 0.1 0.1 0.5
v 0.1 0.3 0.5
v -0.2 -0.7 0.4
v -0.2 -0.4 0.4
v -0.2 0.4 0.4
v -0.2 0.6 0.4
v -0.1 -0.7 0.4
v -0.1 -0.6 0.4
v -0.1 -0.4 0.4
v -0.1 -0.3 0.4
v -0.1 0.4 0.4
v -0.1 0.6 0.4
v 0 -0.6 0.4
v 0 -0.5 0.4
v 0 -0.3 0.4
v 0 -0.2 0.4
v 0 -0.1 0.4
v 0 0 0.4
v 0 0.1 0.4
v 0 0.3 0.4
v 0 0.4 0.4
v 0 0.6 0.4
v 0.1 -0.5 0.4
v 0.1 -0.2 0.4
v 0.1 0 0.4
v 0.1 0.1 0.4
v 0.1 0.3 0.4
v 0.1 0.4 0.4
v -0.2 -0.8 0.3
v -0.2 -0.7 0.3
v -0.2 0.6 0.3
v -0.2 0.7 0.3
v -0.1 -0.8 0.3
v -0.1 -0.7 0.3
v -0.1 -0.6 0.3
v -0.1 0.6 0.3
v -0.1 0.7 0.3
v 0 -0.7 0.3
v 0 -0.6 0.3
v 0 -0.5 0.3
v 0 0.4 0.3
v 0 0.5 0.3
v 0 0.6 0.3
v 0 0.7 0.3
v 0.1 -0.6 0.3
v 0.1 -0.5 0.3
v 0.1 -0.2 0.3
v 0.1 -0.1 0.3
v 0.1 0 0.3
v 0.1 0.2 0.3
v 0.1 0.4 0.3
v 0.1 0.5 0.3
v 0.2 -0.2 0.3
v 0.2 -0.1 0.3
v 0.2 0.2 0.3
v -0.1 -0.8 0.2
v -0.1 -0.7 0.2
v 0 -0.8 0.2
v 0 -0.7 0.2
v 0 -0.6 0.2
v 0 0.5 0.2
v 0 0.6 0.2
v 0.1 -0.8 0.2
v 0.1 -0.7 0.2
v 0.1 -0.6 0.2
v 0.1 -0.4 0.2
v 0.1 -0.2 0.2
v 0.1 0.5 0.2
v 0.1 0.6 0.2
v 0.2 -0.4 0.2
v 0.2 -0.2 0.2
v -0.2 0.7 0.1
v -0.2 0.8 0.1
v -0.1 0.7 0.1
v -0.1 0.8 0.1
v 0 0.7 0.1
v 0 0.8 0.1
v 0.1 -0.6 0.1
v 0.1 -0.5 0.1
v 0.1 -0.4 0.1
v 0.1 0.2 0.1
v 0.1 0.3 0.1
v 0.2 -0.6 0.1
v 0.2 -0.4 0.1
v 0.2 0.2 0.1
v 0.2 0.3 0.1
v 0.1 -0.7 5.96046e-008
v 0.1 -0.6 5.96046e-008
v 0.1 0.3 5.96046e-008
v 0.1 0.4 5.96046e-008
v 0.2 -0.7 5.96046e-008
v 0.2 -0.6 5.96046e-008
v 0.2 0.3 5.96046e-008
v 0.2 0.4 5.96046e-008
v 0.1 -0.7 -0.1
v 0.1 -0.3 -0.1
v 0.1 0.3 -0.1
v 0.1 0.4 -0.1
v 0.2 -0.7 -0.1
v 0.2 -0.3 -0.1
v 0.2 0.3 -0.1
v 0.2 0.4 -0.1
v -0.2 -0.8 -0.2
v -0.2 -0.4 -0.2
v -0.2 0.7 -0.2
v -0.2 0.8 -0.2
v -0.1 -0.8 -0.2
v -0.1 -0.5 -0.2
v -0.1 -0.4 -0.2
v -0.1 0.7 -0.2
v -0.1 0.8 -0.2
v 0 -0.8 -0.2
v 0 -0.5 -0.2
v 0 0.5 -0.2
v 0 0.6 -0.2
v 0 0.7 -0.2
v 0 0.8 -0.2
v 0.1 -0.8 -0.2
v 0.1 -0.5 -0.2
v 0.1 -0.3 -0.2
v 0.1 -0.1 -0.2
v 0.1 0.2 -0.2
v 0.1 0.3 -0.2
v 0.1 0.5 -0.2
v 0.1 0.6 -0.2
v 0.2 -0.3 -0.2
v 0.2 -0.1 -0.2
v 0.2 0.2 -0.2
v 0.2 0.3 -0.2
v -0.1 -0.8 -0.3
v -0.1 -0.6 -0.3
v 0 -0.8 -0.3
v 0 -0.6 -0.3
v 0 -0.5 -0.3
v 0 -0.4 -0.3
v 0 0.4 -0.3
v 0 0.5 -0.3
v 0.1 -0.5 -0.3
v 0.1 -0.4 -0.3
v 0.1 -0.1 -0.3
v 0.1 0.2 -0.3
v 0.1 0.4 -0.3
v 0.1 0.5 -0.3
v 0.2 -0.1 -0.3
v 0.2 0.2 -0.3
v -0.2 -0.4 -0.4
v -0.2 -0.3 -0.4
v -0.2 0.6 -0.4
v -0.2 0.7 -0.4
v -0.1 -0.6 -0.4
v -0.1 -0.4 -0.4
v -0.1 -0.3 -0.4
v -0.1 0.6 -0.4
v -0.1 0.7 -0.4
v 0 -0.6 -0.4
v 0 -0.4 -0.4
v 0 -0.3 -0.4
v 0 -0.1 -0.4
v 0 0.3 -0.4
v 0 0.4 -0.4
v 0 0.6 -0.4
v 0 0.7 -0.4
v 0.1 -0.4 -0.4
v 0.1 -0.3 -0.4
v 0.1 -0.1 -0.4
v 0.1 0.3 -0.4
v 0.1 0.4 -0.4
v -0.2 -0.3 -0.5
v -0.2 0 -0.5
v -0.2 0.4 -0.5
v -0.2 0.6 -0.5
v -0.1 -0.3 -0.5
v -0.1 -0.1 -0.5
v -0.1 0 -0.5
v -0.1 0.4 -0.5
v -0.1 0.6 -0.5
v 0 -0.3 -0.5
v 0 -0.1 -0.5
v 0 0.3 -0.5
v 0 0.4 -0.5
v 0 0.6 -0.5
v 0.1 -0.1 -0.5
v 0.1 0.3 -0.5
v -0.2 0 -0.6
v -0.2 0.4 -0.6
v -0.1 -0.1 -0.6
v -0.1 0 -0.6
v -0.1 0.3 -0.6
v -0.1 0.4 -0.6
v 0 -0.1 -0.6
v 0 0 -0.6
v 0 0.3 -0.6
v 0 0.4 -0.6
v -0.1 0 -0.7
v -0.1 0.3 -0.7
v 0 0 -0.7
v 0 0.3 -0.7
v -0.2 -0.8 0.3
v -0.1 -0.8 0.3
v -0.1 -0.8 0.2
v 0 -0.8 0.2
v 0.1 -0.8 0.2
v -0.1 -0.8 0.1
v 0 -0.8 0.1
v -0.2 -0.8 -0.2
v -0.1 -0.8 -0.2
v 0 -0.8 -0.2
v 0.1 -0.8 -0.2
v -0.1 -0.8 -0.3
v 0 -0.8 -0.3
v -0.2 -0.7 0.4
v -0.1 -0.7 0.4
v -0.2 -0.7 0.3
v -0.1 -0.7 0.3
v 0 -0.7 0.3
v -0.1 -0.7 0.2
v 0 -0.7 0.2
v 0.1 -0.7 5.96046e-008
v 0.2 -0.7 5.96046e-008
v 0.1 -0.7 -0.1
v 0.2 -0.7 -0.1
v -0.1 -0.6 0.4
v 0 -0.6 0.4
v -0.1 -0.6 0.3
v 0 -0.6 0.3
v 0.1 -0.6 0.3
v 0 -0.6 0.2
v 0.1 -0.6 0.2
v 0.1 -0.6 0.1
v 0.2 -0.6 0.1
v 0.1 -0.6 5.96046e-008
v 0.2 -0.6 5.96046e-008
v -0.1 -0.6 -0.3
v 0 -0.6 -0.3
v -0.1 -0.6 -0.4
v 0 -0.6 -0.4
v 0 -0.5 0.4
v 0.1 -0.5 0.4
v 0 -0.5 0.3
v 0.1 -0.5 0.3
v 0 -0.5 -0.2
v 0.1 -0.5 -0.2
v 0 -0.5 -0.3
v 0.1 -0.5 -0.3
v -0.2 -0.4 0.5
v -0.1 -0.4 0.5
v -0.2 -0.4 0.4
v -0.1 -0.4 0.4
v 0.1 -0.4 0.2
v 0.2 -0.4 0.2
v 0.1 -0.4 0.1
v 0.2 -0.4 0.1
v -0.2 -0.4 -0.2
v -0.1 -0.4 -0.2
v 0 -0.4 -0.3
v 0.1 -0.4 -0.3
v -0.2 -0.4 -0.4
v -0.1 -0.4 -0.4
v 0 -0.4 -0.4
v 0.1 -0.4 -0.4
v -0.1 -0.3 0.5
v 0 -0.3 0.5
v -0.1 -0.3 0.4
v 0 -0.3 0.4
v 0.1 -0.3 -0.1
v 0.2 -0.3 -0.1
v 0.1 -0.3 -0.2
v 0.2 -0.3 -0.2
v -0.2 -0.3 -0.4
v -0.1 -0.3 -0.4
v 0 -0.3 -0.4
v -0.2 -0.3 -0.5
v -0.1 -0.3 -0.5
v 0 -0.3 -0.5
v 0.1 -0.2 0.3
v 0.2 -0.2 0.3
v 0.1 -0.2 0.2
v 0.2 -0.2 0.2
v 0.1 -0.1 -0.2
v 0.2 -0.1 -0.2
v 0.1 -0.1 -0.3
v 0.2 -0.1 -0.3
v 0 -0.1 -0.4
v 0.1 -0.1 -0.4
v -0.1 -0.1 -0.5
v 0 -0.1 -0.5
v 0.1 -0.1 -0.5
v -0.1 -0.1 -0.6
v 0 -0.1 -0.6
v -0.2 0 -0.5
v -0.1 0 -0.5
v -0.2 0 -0.6
v -0.1 0 -0.6
v 0 0 -0.6
v -0.1 0 -0.7
v 0 0 -0.7
v -0.2 0.1 0.6
v 0 0.1 0.6
v -0.2 0.1 0.5
v -0.1 0.1 0.5
v 0 0.1 0.5
v 0.1 0.1 0.5
v 0 0.1 0.4
v 0.1 0.1 0.4
v 0.1 0.2 0.3
v 0.2 0.2 0.3
v 0.1 0.2 0.1
v 0.2 0.2 0.1
v 0.1 0.2 -0.2
v 0.2 0.2 -0.2
v 0.1 0.2 -0.3
v 0.2 0.2 -0.3
v 0 0.3 0.5
v 0.1 0.3 0.5
v 0 0.3 0.4
v 0.1 0.3 0.4
v 0.1 0.3 0.1
v 0.2 0.3 0.1
v 0.1 0.3 5.96046e-008
v 0.2 0.3 5.96046e-008
v 0.1 0.3 -0.1
v 0.2 0.3 -0.1
v 0.1 0.3 -0.2
v 0.2 0.3 -0.2
v 0 0.3 -0.4
v 0.1 0.3 -0.4
v 0 0.3 -0.5
v 0.1 0.3 -0.5
v -0.1 0.3 -0.6
v 0 0.3 -0.6
v -0.1 0.3 -0.7
v 0 0.3 -0.7
v -0.2 0.4 0.6
v -0.1 0.4 0.6
v 0 0.4 0.6
v -0.2 0.4 0.4
v -0.1 0.4 0.4
v 0 0.4 0.4
v 0.1 0.4 0.4
v 0 0.4 0.3
v 0.1 0.4 0.3
v 0.1 0.4 5.96046e-008
v 0.2 0.4 5.96046e-008
v 0.1 0.4 -0.1
v 0.2 0.4 -0.1
v 0 0.4 -0.3
v 0.1 0.4 -0.3
v 0 0.4 -0.4
v 0.1 0.4 -0.4
v -0.2 0.4 -0.5
v -0.1 0.4 -0.5
v 0 0.4 -0.5
v -0.2 0.4 -0.6
v -0.1 0.4 -0.6
v 0 0.4 -0.6
v 0 0.5 0.3
v 0.1 0.5 0.3
v 0 0.5 0.2
v 0.1 0.5 0.2
v 0 0.5 -0.2
v 0.1 0.5 -0.2
v 0 0.5 -0.3
v 0.1 0.5 -0.3
v -0.2 0.6 0.4
v -0.1 0.6 0.4
v 0 0.6 0.4
v -0.2 0.6 0.3
v -0.1 0.6 0.3
v 0 0.6 0.3
v 0 0.6 0.2
v 0.1 0.6 0.2
v 0 0.6 -0.2
v 0.1 0.6 -0.2
v -0.2 0.6 -0.4
v -0.1 0.6 -0.4
v 0 0.6 -0.4
v -0.2 0.6 -0.5
v -0.1 0.6 -0.5
v 0 0.6 -0.5
v -0.2 0.7 0.3
v -0.1 0.7 0.3
v 0 0.7 0.3
v -0.2 0.7 0.1
v -0.1 0.7 0.1
v 0 0.7 0.1
v -0.2 0.7 -0.2
v -0.1 0.7 -0.2
v 0 0.7 -0.2
v -0.2 0.7 -0.4
v -0.1 0.7 -0.4
v 0 0.7 -0.4
v -0.2 0.8 0.1
v -0.1 0.8 0.1
v 0 0.8 0.1
v -0.2 0.8 -0.2
v -0.1 0.8 -0.2
v 0 0.8 -0.2

# faces
f 4/3/1 2/3/1 1/3/1
f 6/3/1 4/3/1 3/3/1
f 7/3/1 2/3/1 4/3/1
f 7/3/1 4/3/1 6/3/1
f 9/3/1 6/3/1 5/3/1
f 9/3/1 8/3/1 7/3/1
f 9/3/1 7/3/1 6/3/1
f 11/3/1 10/3/1 9/3/1
f 14/3/1 9/3/1 5/3/1
f 14/3/1 12/3/1 11/3/1
f 14/3/1 11/3/1 9/3/1
f 15/2/1 14/2/1 13/2/1
f 16/3/1 12/3/1 14/3/1
f 16/2/1 14/2/1 15/2/1
f 17/3/1 16/3/1 15/3/1
f 18/3/1 12/3/1 16/3/1
f 18/3/1 16/3/1 17/3/1
f 19/3/1 12/3/1 18/3/1
f 20/3/1 12/3/1 19/3/1
f 21/3/1 19/3/1 18/3/1
f 22/3/1 19/3/1 21/3/1
f 23/3/1 19/3/1 22/3/1
f 24/3/1 19/3/1 23/3/1
f 25/3/1 23/3/1 22/3/1
f 26/3/1 23/3/1 25/3/1
f 27/3/1 23/3/1 26/3/1
f 28/3/1 23/3/1 27/3/1
f 29/3/1 27/3/1 26/3/1
f 30/3/1 27/3/1 29/3/1
f 33/1/1 32/1/1 31/1/1
f 35/1/1 33/1/1 31/1/1
f 36/3/1 34/3/1 33/3/1
f 36/1/1 33/1/1 35/1/1
f 37/3/1 36/3/1 35/3/1
f 38/3/1 34/3/1 36/3/1
f 38/3/1 36/3/1 37/3/1
f 41/1/1 40/1/1 39/1/1
f 42/1/1 40/1/1 41/1/1
f 44/1/1 43/1/1 42/1/1
f 45/1/1 43/1/1 44/1/1
f 46/3/2 47/3/2 49/3/2
f 49/3/2 47/3/2 50/3/2
f 48/3/2 49/3/2 51/3/2
f 51/3/2 49/3/2 52/3/2
f 53/3/2 54/3/2 55/3/2
f 55/3/2 54/3/2 56/3/2
f 59/2/2 60/2/2 62/2/2
f 62/2/2 60/2/2 63/2/2
f 57/1/2 58/1/2 64/1/2
f 61/3/2 62/3/2 66/3/2
f 66/3/2 62/3/2 67/3/2
f 57/1/2 64/1/2 68/1/2
f 64/3/2 65/3/2 69/3/2
f 68/1/2 64/1/2 69/1/2
f 69/3/2 65/3/2 70/3/2
f 70/3/2 65/3/2 71/3/2
f 72/3/2 73/3/2 76/3/2
f 72/3/2 76/3/2 77/3/2
f 77/3/2 76/3/2 78/3/2
f 74/1/2 75/1/2 79/1/2
f 79/1/2 75/1/2 80/1/2
f 77/2/2 78/2/2 82/2/2
f 80/1/2 81/1/2 83/1/2
f 77/2/2 82/2/2 86/2/2
f 86/2/2 82/2/2 87/2/2
f 85/2/2 86/2/2 88/2/2
f 88/2/2 86/2/2 89/2/2
f 88/1/2 89/1/2 90/1/2
f 83/1/2 84/1/2 93/1/2
f 80/1/2 83/1/2 93/1/2
f 93/1/2 84/1/2 94/1/2
f 94/1/2 84/1/2 95/1/2
f 88/1/2 90/1/2 96/1/2
f 90/1/2 91/1/2 96/1/2
f 96/1/2 91/1/2 97/1/2
f 93/1/2 94/1/2 100/1/2
f 92/1/2 93/1/2 100/1/2
f 100/1/2 94/1/2 101/1/2
f 101/1/2 94/1/2 102/1/2
f 97/1/2 98/1/2 103/1/2
f 100/1/2 101/1/2 106/1/2
f 99/1/2 100/1/2 106/1/2
f 103/1/2 104/1/2 107/1/2
f 97/1/2 103/1/2 107/1/2
f 107/1/2 104/1/2 108/1/2
f 108/1/2 104/1/2 109/1/2
f 105/1/2 106/1/2 110/1/2
f 106/1/2 101/1/2 111/1/2
f 110/1/2 106/1/2 111/1/2
f 111/1/2 101/1/2 112/1/2
f 108/1/2 109/1/2 113/1/2
f 109/1/2 110/1/2 113/1/2
f 110/1/2 111/1/2 113/1/2
f 113/1/2 111/1/2 114/1/2
f 114/1/2 111/1/2 115/1/2
f 115/1/2 111/1/2 116/1/2
f 114/1/2 115/1/2 117/1/2
f 117/1/2 115/1/2 118/1/2
f 119/1/2 120/1/2 121/1/2
f 121/1/2 120/1/2 122/1/2
f 122/1/2 120/1/2 123/1/2
f 123/1/2 120/1/2 124/1/2
f 121/2/2 122/2/2 126/2/2
f 122/1/2 123/1/2 127/1/2
f 126/2/2 122/2/2 127/2/2
f 127/1/2 123/1/2 128/1/2
f 125/2/2 126/2/2 130/2/2
f 126/1/2 127/1/2 131/1/2
f 130/2/2 126/2/2 131/2/2
f 131/1/2 127/1/2 132/1/2
f 124/1/2 120/1/2 133/1/2
f 131/2/2 132/2/2 135/2/2
f 130/2/2 131/2/2 135/2/2
f 129/3/2 130/3/2 135/3/2
f 135/2/2 132/2/2 136/2/2
f 136/2/2 132/2/2 137/2/2
f 133/1/2 134/1/2 138/1/2
f 124/1/2 133/1/2 140/1/2
f 133/1/2 138/1/2 140/1/2
f 140/1/2 138/1/2 141/1/2
f 138/3/2 139/3/2 142/3/2
f 141/1/2 138/1/2 142/1/2
f 142/3/2 139/3/2 143/3/2
f 135/3/2 136/3/2 144/3/2
f 129/3/2 135/3/2 144/3/2
f 144/3/2 136/3/2 145/3/2
f 145/3/2 136/3/2 146/3/2
f 144/2/2 145/2/2 147/2/2
f 142/1/2 143/1/2 148/1/2
f 141/1/2 142/1/2 148/1/2
f 148/1/2 143/1/2 149/1/2
f 149/1/2 143/1/2 150/1/2
f 144/2/2 147/2/2 152/2/2
f 152/2/2 147/2/2 153/2/2
f 152/1/2 153/1/2 155/1/2
f 155/1/2 153/1/2 156/1/2
f 154/1/2 155/1/2 156/1/2
f 149/1/2 150/1/2 159/1/2
f 150/1/2 151/1/2 159/1/2
f 156/1/2 157/1/2 160/1/2
f 154/1/2 156/1/2 160/1/2
f 160/1/2 157/1/2 161/1/2
f 161/1/2 157/1/2 162/1/2
f 158/1/2 159/1/2 165/1/2
f 159/1/2 151/1/2 166/1/2
f 165/1/2 159/1/2 166/1/2
f 166/1/2 151/1/2 167/1/2
f 162/1/2 163/1/2 168/1/2
f 161/1/2 162/1/2 168/1/2
f 168/1/2 163/1/2 169/1/2
f 169/1/2 163/1/2 170/1/2
f 164/1/2 165/1/2 171/1/2
f 165/1/2 166/1/2 171/1/2
f 171/1/2 166/1/2 172/1/2
f 172/1/2 166/1/2 173/1/2
f 169/1/2 170/1/2 174/1/2
f 171/1/2 172/1/2 174/1/2
f 170/1/2 171/1/2 174/1/2
f 174/1/2 172/1/2 175/1/2
f 175/1/2 172/1/2 176/1/2
f 176/1/2 172/1/2 177/1/2
f 175/1/2 176/1/2 178/1/2
f 178/1/2 176/1/2 179/1/2
f 180/1/2 181/1/2 183/1/2
f 182/1/2 183/1/2 185/1/2
f 183/1/2 181/1/2 186/1/2
f 185/1/2 183/1/2 186/1/2
f 184/2/2 185/2/2 189/2/2
f 186/1/2 187/1/2 190/1/2
f 185/1/2 186/1/2 190/1/2
f 189/2/2 185/2/2 190/2/2
f 188/2/2 189/2/2 191/2/2
f 189/1/2 190/1/2 192/1/2
f 191/2/2 189/2/2 192/2/2
f 190/1/2 187/1/2 193/1/2
f 192/1/2 190/1/2 193/1/2
f 191/1/2 192/1/2 195/1/2
f 193/1/2 194/1/2 195/1/2
f 192/1/2 193/1/2 195/1/2
f 195/1/2 194/1/2 196/1/2
f 196/1/2 194/1/2 197/1/2
f 197/1/2 194/1/2 198/1/2
f 196/1/2 197/1/2 199/1/2
f 199/1/2 197/1/2 200/1/2
f 200/1/2 197/1/2 201/1/2
f 201/1/2 197/1/2 202/1/2
f 200/1/2 201/1/2 203/1/2
f 203/1/2 201/1/2 204/1/2
f 208/2/3 206/2/3 205/2/3
f 208/3/3 207/3/3 206/3/3
f 209/3/3 207/3/3 208/3/3
f 210/2/3 208/2/3 205/2/3
f 211/1/3 209/1/3 208/1/3
f 211/2/3 208/2/3 210/2/3
f 212/1/3 209/1/3 211/1/3
f 215/3/3 214/3/3 213/3/3
f 216/3/3 214/3/3 215/3/3
f 217/3/3 214/3/3 216/3/3
f 218/3/3 214/3/3 217/3/3
f 219/3/3 217/3/3 216/3/3
f 220/2/3 218/2/3 217/2/3
f 220/3/3 217/3/3 219/3/3
f 221/2/3 218/2/3 220/2/3
f 224/1/3 223/1/3 222/1/3
f 224/1/3 222/1/3 221/1/3
f 225/1/3 223/1/3 224/1/3
f 230/3/3 227/3/3 226/3/3
f 231/3/3 227/3/3 230/3/3
f 232/3/3 227/3/3 231/3/3
f 234/3/3 229/3/3 228/3/3
f 235/3/3 229/3/3 234/3/3
f 236/3/3 233/3/3 232/3/3
f 236/3/3 232/3/3 231/3/3
f 237/3/3 233/3/3 236/3/3
f 238/3/3 233/3/3 237/3/3
f 244/1/3 235/1/3 234/1/3
f 245/1/3 235/1/3 244/1/3
f 246/3/3 238/3/3 237/3/3
f 246/3/3 239/3/3 238/3/3
f 247/2/3 240/2/3 239/2/3
f 247/3/3 239/3/3 246/3/3
f 247/2/3 241/2/3 240/2/3
f 248/1/3 242/1/3 241/1/3
f 248/2/3 241/2/3 247/2/3
f 249/1/3 242/1/3 248/1/3
f 250/1/3 244/1/3 243/1/3
f 251/1/3 244/1/3 250/1/3
f 256/3/3 253/3/3 252/3/3
f 257/3/3 253/3/3 256/3/3
f 259/3/3 255/3/3 254/3/3
f 260/3/3 255/3/3 259/3/3
f 261/2/3 258/2/3 257/2/3
f 262/2/3 258/2/3 261/2/3
f 266/1/3 260/1/3 259/1/3
f 267/1/3 260/1/3 266/1/3
f 268/2/3 263/2/3 262/2/3
f 269/2/3 263/2/3 268/2/3
f 274/1/3 265/1/3 264/1/3
f 275/1/3 265/1/3 274/1/3
f 276/2/3 271/2/3 270/2/3
f 277/1/3 273/1/3 272/1/3
f 277/2/3 271/2/3 276/2/3
f 277/1/3 272/1/3 271/1/3
f 278/1/3 273/1/3 277/1/3
f 281/2/3 280/2/3 279/2/3
f 282/2/3 280/2/3 281/2/3
f 286/1/3 282/1/3 281/1/3
f 287/2/3 283/2/3 282/2/3
f 287/1/3 282/1/3 286/1/3
f 288/2/3 283/2/3 287/2/3
f 291/1/3 285/1/3 284/1/3
f 292/1/3 285/1/3 291/1/3
f 293/2/3 290/2/3 289/2/3
f 294/2/3 290/2/3 293/2/3
f 297/3/3 296/3/3 295/3/3
f 298/3/3 296/3/3 297/3/3
f 299/1/3 298/1/3 297/1/3
f 300/1/3 298/1/3 299/1/3
f 306/1/3 302/1/3 301/1/3
f 306/1/3 303/1/3 302/1/3
f 307/1/3 303/1/3 306/1/3
f 308/1/3 305/1/3 304/1/3
f 309/1/3 305/1/3 308/1/3
f 314/1/3 311/1/3 310/1/3
f 315/1/3 311/1/3 314/1/3
f 316/1/3 313/1/3 312/1/3
f 317/1/3 313/1/3 316/1/3
f 318/1/4 319/1/4 322/1/4
f 322/1/4 319/1/4 323/1/4
f 320/1/4 321/1/4 324/1/4
f 324/1/4 321/1/4 325/1/4
f 326/3/4 327/3/4 330/3/4
f 330/3/4 327/3/4 331/3/4
f 331/3/4 327/3/4 332/3/4
f 328/3/4 329/3/4 333/3/4
f 333/3/4 329/3/4 334/3/4
f 333/1/4 334/1/4 339/1/4
f 339/1/4 334/1/4 340/1/4
f 335/1/4 336/1/4 341/1/4
f 341/1/4 336/1/4 342/1/4
f 337/1/4 338/1/4 347/1/4
f 347/1/4 338/1/4 348/1/4
f 343/1/4 344/1/4 349/1/4
f 349/1/4 344/1/4 350/1/4
f 345/1/4 346/1/4 351/1/4
f 351/1/4 346/1/4 352/1/4
f 353/1/4 354/1/4 355/1/4
f 355/1/4 354/1/4 356/1/4
f 357/1/4 358/1/4 361/1/4
f 361/1/4 358/1/4 362/1/4
f 359/1/4 360/1/4 365/1/4
f 365/1/4 360/1/4 366/1/4
f 363/1/4 364/1/4 367/1/4
f 367/1/4 364/1/4 368/1/4
f 369/3/4 370/3/4 374/3/4
f 374/3/4 370/3/4 375/3/4
f 371/3/4 372/3/4 376/3/4
f 376/3/4 372/3/4 377/3/4
f 374/3/4 375/3/4 378/3/4
f 373/3/4 374/3/4 378/3/4
f 378/3/4 375/3/4 379/3/4
f 379/3/4 375/3/4 380/3/4
f 376/1/4 377/1/4 384/1/4
f 384/1/4 377/1/4 385/1/4
f 379/3/4 380/3/4 386/3/4
f 380/1/4 381/1/4 387/1/4
f 386/3/4 380/3/4 387/3/4
f 387/1/4 381/1/4 388/1/4
f 382/1/4 383/1/4 389/1/4
f 389/1/4 383/1/4 390/1/4
f 391/3/4 392/3/4 395/3/4
f 395/3/4 392/3/4 396/3/4
f 396/3/4 392/3/4 397/3/4
f 393/3/4 394/3/4 398/3/4
f 398/3/4 394/3/4 399/3/4
f 395/1/4 396/1/4 400/1/4
f 400/1/4 396/1/4 401/1/4
f 398/1/4 399/1/4 403/1/4
f 403/1/4 399/1/4 404/1/4
f 401/1/4 402/1/4 405/1/4
f 405/1/4 402/1/4 406/1/4
f 407/3/4 408/3/4 410/3/4
f 410/3/4 408/3/4 411/3/4
f 411/3/4 408/3/4 412/3/4
f 409/1/4 410/1/4 413/1/4
f 413/1/4 410/1/4 414/1/4
f 411/1/4 412/1/4 415/1/4
f 415/1/4 412/1/4 416/1/4
f 417/1/4 418/1/4 419/1/4
f 419/1/4 418/1/4 420/1/4
f 423/3/5 422/3/5 421/3/5
f 426/3/5 423/3/5 421/3/5
f 426/2/5 424/2/5 423/2/5
f 427/1/5 425/1/5 424/1/5
f 427/2/5 424/2/5 426/2/5
f 428/3/5 426/3/5 421/3/5
f 428/3/5 427/3/5 426/3/5
f 429/3/5 427/3/5 428/3/5
f 430/1/5 425/1/5 427/1/5
f 430/3/5 427/3/5 429/3/5
f 431/1/5 425/1/5 430/1/5
f 432/1/5 430/1/5 429/1/5
f 433/1/5 430/1/5 432/1/5
f 436/3/5 435/3/5 434/3/5
f 437/3/5 435/3/5 436/3/5
f 439/2/5 438/2/5 437/2/5
f 440/2/5 438/2/5 439/2/5
f 443/1/5 442/1/5 441/1/5
f 444/1/5 442/1/5 443/1/5
f 447/3/5 446/3/5 445/3/5
f 448/3/5 446/3/5 447/3/5
f 450/2/5 449/2/5 448/2/5
f 451/2/5 449/2/5 450/2/5
f 454/1/5 453/1/5 452/1/5
f 455/1/5 453/1/5 454/1/5
f 458/3/5 457/3/5 456/3/5
f 459/3/5 457/3/5 458/3/5
f 462/3/5 461/3/5 460/3/5
f 463/3/5 461/3/5 462/3/5
f 466/1/5 465/1/5 464/1/5
f 467/1/5 465/1/5 466/1/5
f 470/3/5 469/3/5 468/3/5
f 471/3/5 469/3/5 470/3/5
f 474/2/5 473/2/5 472/2/5
f 475/2/5 473/2/5 474/2/5
f 480/3/5 477/3/5 476/3/5
f 481/3/5 477/3/5 480/3/5
f 482/3/5 479/3/5 478/3/5
f 483/3/5 479/3/5 482/3/5
f 486/3/5 485/3/5 484/3/5
f 487/3/5 485/3/5 486/3/5
f 490/1/5 489/1/5 488/1/5
f 491/1/5 489/1/5 490/1/5
f 495/3/5 493/3/5 492/3/5
f 496/1/5 494/1/5 493/1/5
f 496/3/5 493/3/5 495/3/5
f 497/1/5 494/1/5 496/1/5
f 500/2/5 499/2/5 498/2/5
f 501/2/5 499/2/5 500/2/5
f 504/1/5 503/1/5 502/1/5
f 505/1/5 503/1/5 504/1/5
f 509/1/5 507/1/5 506/1/5
f 510/1/5 507/1/5 509/1/5
f 511/1/5 509/1/5 508/1/5
f 512/1/5 509/1/5 511/1/5
f 515/3/5 514/3/5 513/3/5
f 516/3/5 514/3/5 515/3/5
f 518/1/5 517/1/5 516/1/5
f 519/1/5 517/1/5 518/1/5
f 522/2/5 521/2/5 520/2/5
f 523/2/5 521/2/5 522/2/5
f 524/2/5 521/2/5 523/2/5
f 526/1/5 525/1/5 524/1/5
f 527/1/5 525/1/5 526/1/5
f 528/1/6 529/1/6 530/1/6
f 530/1/6 529/1/6 531/1/6
f 532/1/6 533/1/6 534/1/6
f 534/1/6 533/1/6 535/1/6
f 536/1/6 537/1/6 538/1/6
f 538/1/6 537/1/6 539/1/6
f 540/1/6 541/1/6 542/1/6
f 542/1/6 541/1/6 543/1/6
f 544/1/6 545/1/6 546/1/6
f 546/1/6 545/1/6 547/1/6
f 548/1/6 549/1/6 550/1/6
f 550/1/6 549/1/6 551/1/6
f 552/1/6 553/1/6 554/1/6
f 554/1/6 553/1/6 555/1/6
f 556/3/6 557/3/6 559/3/6
f 557/1/6 558/1/6 560/1/6
f 559/3/6 557/3/6 560/3/6
f 560/1/6 558/1/6 561/1/6
f 561/1/6 562/1/6 563/1/6
f 563/1/6 562/1/6 564/1/6
f 565/1/6 566/1/6 567/1/6
f 567/1/6 566/1/6 568/1/6
f 569/1/6 570/1/6 571/1/6
f 571/1/6 570/1/6 572/1/6
f 573/3/6 574/3/6 576/3/6
f 574/1/6 575/1/6 577/1/6
f 576/3/6 574/3/6 577/3/6
f 577/1/6 575/1/6 578/1/6
f 579/1/6 580/1/6 581/1/6
f 581/1/6 580/1/6 582/1/6
f 583/1/6 584/1/6 585/1/6
f 585/1/6 584/1/6 586/1/6
f 587/3/6 588/3/6 590/3/6
f 588/1/6 589/1/6 591/1/6
f 590/3/6 588/3/6 591/3/6
f 591/1/6 589/1/6 592/1/6
f 593/1/6 594/1/6 595/1/6
f 595/1/6 594/1/6 596/1/6
f 597/3/6 598/3/6 600/3/6
f 598/1/6 599/1/6 601/1/6
f 600/3/6 598/3/6 601/3/6
f 601/1/6 599/1/6 602/1/6
f 603/3/6 604/3/6 606/3/6
f 604/1/6 605/1/6 607/1/6
f 606/3/6 604/3/6 607/3/6
f 607/1/6 605/1/6 608/1/6
f 609/3/6 610/3/6 612/3/6
f 610/1/6 611/1/6 613/1/6
f 612/3/6 610/3/6 613/3/6
f 613/1/6 611/1/6 614/1/6
f 615/3/6 616/3/6 618/3/6
f 616/1/6 617/1/6 619/1/6
f 618/3/6 616/3/6 619/3/6
f 619/1/6 617/1/6 620/1/6
