# MagicaVoxel @ Ephtracy

# group
o Bernard

# material
mtllib Bernard_Leg_Back_Right_Lower.mtl
usemtl palette

# normals
vn -1 0 0
vn 1 0 0
vn 0 0 1
vn 0 0 -1
vn 0 -1 0
vn 0 1 0

# texcoords
vt 0.228516 0.5
vt 0.880859 0.5
vt 0.962891 0.5

# verts
v -0.1 -0.5 0.1
v -0.1 -0.5 -0.2
v -0.1 -0.3 -0.1
v -0.1 -0.3 -0.2
v -0.1 0.1 0
v -0.1 0.1 -0.1
v -0.1 0.2 0
v -0.1 0.2 -0.1
v -0.1 0.3 0.1
v -0.1 0.3 0
v -0.1 0.4 0.2
v -0.1 0.4 0.1
v -0.1 0.4 0
v -0.1 0.4 -0.1
v -0.1 0.5 0.2
v -0.1 0.5 0.1
v -0.1 0.6 0.2
v -0.1 0.6 0
v -0.1 0.6 -0.1
v 0 -0.5 0.2
v 0 -0.5 0.1
v 0 -0.5 -0.2
v 0 -0.5 -0.3
v 0 -0.3 -0.1
v 0 -0.3 -0.2
v 0 -0.3 -0.3
v 0 -0.1 -0.1
v 0 -0.1 -0.2
v 0 0.3 0.1
v 0 0.4 0.2
v 0 0.4 0.1
v 0 0.5 0.3
v 0 0.5 0.2
v 0 0.6 0.3
v 0 0.6 0.2
v 0.1 0.3 0.3
v 0.1 0.3 0.2
v 0.1 0.5 0.3
v 0.1 0.5 0.2
v 0.1 -0.5 0.2
v 0.1 -0.5 0.1
v 0.1 -0.5 -0.2
v 0.1 -0.5 -0.3
v 0.1 -0.3 -0.1
v 0.1 -0.3 -0.2
v 0.1 -0.3 -0.3
v 0.1 -0.1 -0.1
v 0.1 -0.1 -0.2
v 0.1 0 0.2
v 0.1 0 0.1
v 0.2 -0.5 0.1
v 0.2 -0.5 -0.2
v 0.2 -0.3 -0.1
v 0.2 -0.3 -0.2
v 0.2 0 0.2
v 0.2 0 0.1
v 0.2 0.3 0.3
v 0.2 0.3 0.2
v 0.2 0.6 0.3
v 0.2 0.6 -0.1
v 0 0.5 0.3
v 0 0.6 0.3
v 0.1 0.3 0.3
v 0.1 0.5 0.3
v 0.2 0.3 0.3
v 0.2 0.6 0.3
v -0.1 0.4 0.2
v -0.1 0.5 0.2
v -0.1 0.6 0.2
v 0 -0.5 0.2
v 0 0.4 0.2
v 0 0.5 0.2
v 0 0.6 0.2
v 0.1 -0.5 0.2
v 0.1 0 0.2
v 0.1 0.3 0.2
v 0.1 0.5 0.2
v 0.2 0 0.2
v 0.2 0.3 0.2
v -0.1 -0.5 0.1
v -0.1 0.3 0.1
v -0.1 0.4 0.1
v 0 -0.5 0.1
v 0 0.3 0.1
v 0 0.4 0.1
v 0.1 -0.5 0.1
v 0.1 0 0.1
v 0.2 -0.5 0.1
v 0.2 0 0.1
v -0.1 -0.3 -0.1
v -0.1 0.1 -0.1
v -0.1 0.2 -0.1
v -0.1 0.4 -0.1
v -0.1 0.6 -0.1
v 0 -0.3 -0.1
v 0 -0.1 -0.1
v 0 0.1 -0.1
v 0 0.2 -0.1
v 0 0.3 -0.1
v 0 0.4 -0.1
v 0.1 -0.3 -0.1
v 0.1 -0.1 -0.1
v 0.1 0.3 -0.1
v 0.1 0.6 -0.1
v 0.2 -0.3 -0.1
v 0.2 0.6 -0.1
v -0.1 -0.5 -0.2
v -0.1 -0.3 -0.2
v 0 -0.5 -0.2
v 0 -0.3 -0.2
v 0 -0.1 -0.2
v 0.1 -0.5 -0.2
v 0.1 -0.3 -0.2
v 0.1 -0.1 -0.2
v 0.2 -0.5 -0.2
v 0.2 -0.3 -0.2
v 0 -0.5 -0.3
v 0 -0.3 -0.3
v 0.1 -0.5 -0.3
v 0.1 -0.3 -0.3
v 0 -0.5 0.2
v 0.1 -0.5 0.2
v -0.1 -0.5 0.1
v 0 -0.5 0.1
v 0.1 -0.5 0.1
v 0.2 -0.5 0.1
v -0.1 -0.5 -0.2
v 0 -0.5 -0.2
v 0.1 -0.5 -0.2
v 0.2 -0.5 -0.2
v 0 -0.5 -0.3
v 0.1 -0.5 -0.3
v 0.1 0 0.2
v 0.2 0 0.2
v 0.1 0 0.1
v 0.2 0 0.1
v 0.1 0.3 0.3
v 0.2 0.3 0.3
v 0.1 0.3 0.2
v 0.2 0.3 0.2
v -0.1 0.4 0.2
v 0 0.4 0.2
v -0.1 0.4 0.1
v 0 0.4 0.1
v 0 0.5 0.3
v 0.1 0.5 0.3
v 0 0.5 0.2
v 0.1 0.5 0.2
v -0.1 -0.3 -0.1
v 0 -0.3 -0.1
v 0.1 -0.3 -0.1
v 0.2 -0.3 -0.1
v -0.1 -0.3 -0.2
v 0 -0.3 -0.2
v 0.1 -0.3 -0.2
v 0.2 -0.3 -0.2
v 0 -0.3 -0.3
v 0.1 -0.3 -0.3
v 0 -0.1 -0.1
v 0.1 -0.1 -0.1
v 0 -0.1 -0.2
v 0.1 -0.1 -0.2
v 0 0.6 0.3
v 0.2 0.6 0.3
v -0.1 0.6 0.2
v 0 0.6 0.2
v -0.1 0.6 0
v 0 0.6 0
v 0.1 0.6 0
v -0.1 0.6 -0.1
v 0.1 0.6 -0.1
v 0.2 0.6 -0.1

# faces
f 3/3/1 2/3/1 1/3/1
f 4/3/1 2/3/1 3/3/1
f 5/3/1 3/3/1 1/3/1
f 6/3/1 3/3/1 5/3/1
f 7/3/1 5/3/1 1/3/1
f 7/1/1 6/1/1 5/1/1
f 8/1/1 6/1/1 7/1/1
f 9/3/1 7/3/1 1/3/1
f 10/2/1 8/2/1 7/2/1
f 10/3/1 7/3/1 9/3/1
f 12/2/1 10/2/1 9/2/1
f 13/2/1 8/2/1 10/2/1
f 13/2/1 10/2/1 12/2/1
f 14/2/1 8/2/1 13/2/1
f 15/3/1 12/3/1 11/3/1
f 16/2/1 13/2/1 12/2/1
f 16/3/1 12/3/1 15/3/1
f 17/2/1 16/2/1 15/2/1
f 18/1/1 14/1/1 13/1/1
f 18/2/1 16/2/1 17/2/1
f 18/2/1 13/2/1 16/2/1
f 19/1/1 14/1/1 18/1/1
f 25/3/1 23/3/1 22/3/1
f 26/3/1 23/3/1 25/3/1
f 27/3/1 25/3/1 24/3/1
f 28/3/1 25/3/1 27/3/1
f 29/3/1 21/3/1 20/3/1
f 30/3/1 29/3/1 20/3/1
f 31/3/1 29/3/1 30/3/1
f 34/3/1 33/3/1 32/3/1
f 35/3/1 33/3/1 34/3/1
f 38/3/1 37/3/1 36/3/1
f 39/3/1 37/3/1 38/3/1
f 42/3/2 43/3/2 45/3/2
f 45/3/2 43/3/2 46/3/2
f 44/3/2 45/3/2 47/3/2
f 47/3/2 45/3/2 48/3/2
f 40/3/2 41/3/2 49/3/2
f 49/3/2 41/3/2 50/3/2
f 51/3/2 52/3/2 53/3/2
f 53/3/2 52/3/2 54/3/2
f 51/3/2 53/3/2 56/3/2
f 55/3/2 56/3/2 58/3/2
f 57/3/2 58/3/2 59/3/2
f 56/3/2 53/3/2 60/3/2
f 59/3/2 58/3/2 60/3/2
f 58/3/2 56/3/2 60/3/2
f 64/3/3 62/3/3 61/3/3
f 65/3/3 64/3/3 63/3/3
f 66/3/3 62/3/3 64/3/3
f 66/3/3 64/3/3 65/3/3
f 71/3/3 68/3/3 67/3/3
f 72/2/3 69/2/3 68/2/3
f 72/3/3 68/3/3 71/3/3
f 73/2/3 69/2/3 72/2/3
f 74/3/3 71/3/3 70/3/3
f 74/3/3 72/3/3 71/3/3
f 75/3/3 72/3/3 74/3/3
f 76/3/3 72/3/3 75/3/3
f 77/3/3 72/3/3 76/3/3
f 78/3/3 76/3/3 75/3/3
f 79/3/3 76/3/3 78/3/3
f 83/3/3 81/3/3 80/3/3
f 84/2/3 82/2/3 81/2/3
f 84/3/3 81/3/3 83/3/3
f 85/2/3 82/2/3 84/2/3
f 88/3/3 87/3/3 86/3/3
f 89/3/3 87/3/3 88/3/3
f 90/3/4 91/3/4 95/3/4
f 95/3/4 91/3/4 96/3/4
f 91/1/4 92/1/4 97/1/4
f 96/3/4 91/3/4 97/3/4
f 92/2/4 93/2/4 98/2/4
f 97/1/4 92/1/4 98/1/4
f 98/2/4 93/2/4 99/2/4
f 93/1/4 94/1/4 100/1/4
f 99/2/4 93/2/4 100/2/4
f 98/3/4 99/3/4 102/3/4
f 96/3/4 97/3/4 102/3/4
f 97/3/4 98/3/4 102/3/4
f 99/1/4 100/1/4 103/1/4
f 102/3/4 99/3/4 103/3/4
f 100/1/4 94/1/4 104/1/4
f 103/1/4 100/1/4 104/1/4
f 101/3/4 102/3/4 105/3/4
f 102/3/4 103/3/4 105/3/4
f 103/3/4 104/3/4 105/3/4
f 105/3/4 104/3/4 106/3/4
f 107/3/4 108/3/4 109/3/4
f 109/3/4 108/3/4 110/3/4
f 110/3/4 111/3/4 113/3/4
f 113/3/4 111/3/4 114/3/4
f 112/3/4 113/3/4 115/3/4
f 115/3/4 113/3/4 116/3/4
f 117/3/4 118/3/4 119/3/4
f 119/3/4 118/3/4 120/3/4
f 124/3/5 122/3/5 121/3/5
f 125/3/5 122/3/5 124/3/5
f 127/3/5 124/3/5 123/3/5
f 127/3/5 126/3/5 125/3/5
f 127/3/5 125/3/5 124/3/5
f 128/3/5 126/3/5 127/3/5
f 129/3/5 126/3/5 128/3/5
f 130/3/5 126/3/5 129/3/5
f 131/3/5 129/3/5 128/3/5
f 132/3/5 129/3/5 131/3/5
f 135/3/5 134/3/5 133/3/5
f 136/3/5 134/3/5 135/3/5
f 139/3/5 138/3/5 137/3/5
f 140/3/5 138/3/5 139/3/5
f 143/3/5 142/3/5 141/3/5
f 144/3/5 142/3/5 143/3/5
f 147/3/5 146/3/5 145/3/5
f 148/3/5 146/3/5 147/3/5
f 149/3/6 150/3/6 153/3/6
f 153/3/6 150/3/6 154/3/6
f 151/3/6 152/3/6 155/3/6
f 155/3/6 152/3/6 156/3/6
f 154/3/6 155/3/6 157/3/6
f 157/3/6 155/3/6 158/3/6
f 159/3/6 160/3/6 161/3/6
f 161/3/6 160/3/6 162/3/6
f 163/3/6 164/3/6 166/3/6
f 165/2/6 166/2/6 167/2/6
f 166/3/6 164/3/6 168/3/6
f 167/2/6 166/2/6 168/2/6
f 168/3/6 164/3/6 169/3/6
f 167/1/6 168/1/6 170/1/6
f 168/1/6 169/1/6 170/1/6
f 169/3/6 164/3/6 171/3/6
f 170/1/6 169/1/6 171/1/6
f 171/3/6 164/3/6 172/3/6
