# MagicaVoxel @ Ephtracy

# group
o Corgi_tail

# material
mtllib Centered_Corgi_Tail.mtl
usemtl palette

# normals
vn -1 0 0
vn 1 0 0
vn 0 0 1
vn 0 0 -1
vn 0 -1 0
vn 0 1 0

# texcoords
vt 0.0332031 0.5
vt 0.0644531 0.5
vt 0.0683594 0.5

# verts
v -0.3 0.2 0.1
v -0.3 0.2 0
v -0.3 0.2 -0.1
v -0.3 0.2 -0.2
v -0.3 0.3 0.1
v -0.3 0.3 0
v -0.3 0.3 -0.1
v -0.3 0.3 -0.2
v -0.3 0.5 0.1
v -0.3 0.5 -0.2
v -0.2 0 0.1
v -0.2 0 0
v -0.2 0.1 0.2
v -0.2 0.1 0.1
v -0.2 0.1 0
v -0.2 0.1 -0.3
v -0.2 0.2 0.3
v -0.2 0.2 0.2
v -0.2 0.2 0.1
v -0.2 0.2 0
v -0.2 0.2 -0.1
v -0.2 0.2 -0.2
v -0.2 0.3 0.3
v -0.2 0.3 0.2
v -0.2 0.3 0.1
v -0.2 0.3 -0.2
v -0.2 0.4 -0.2
v -0.2 0.4 -0.3
v -0.2 0.5 0.1
v -0.2 0.5 -0.2
v -0.2 0.6 0.2
v -0.2 0.6 -0.3
v -0.1 0 0
v -0.1 0 -0.2
v -0.1 0.1 0
v -0.1 0.1 -0.2
v -0.1 0.2 -0.3
v -0.1 0.2 -0.4
v -0.1 0.3 0.3
v -0.1 0.3 0.2
v -0.1 0.4 -0.3
v -0.1 0.5 0.3
v -0.1 0.5 0.2
v -0.1 0.5 -0.3
v -0.1 0.5 -0.4
v -0.1 0.6 0.1
v -0.1 0.6 -0.2
v -0.1 0.7 0.1
v -0.1 0.7 -0.2
v 0.2 0 0
v 0.2 0 -0.2
v 0.2 0.1 0
v 0.2 0.1 -0.2
v 0.2 0.2 -0.3
v 0.2 0.2 -0.4
v 0.2 0.3 0.3
v 0.2 0.3 0.2
v 0.2 0.3 -0.3
v 0.2 0.4 -0.3
v 0.2 0.4 -0.4
v 0.2 0.5 0.3
v 0.2 0.5 0.2
v 0.2 0.5 -0.3
v 0.2 0.5 -0.4
v 0.2 0.6 0.1
v 0.2 0.6 -0.2
v 0.2 0.7 0.1
v 0.2 0.7 -0.2
v 0.3 0 0.1
v 0.3 0 0
v 0.3 0.1 0.2
v 0.3 0.1 0.1
v 0.3 0.1 0
v 0.3 0.1 -0.3
v 0.3 0.2 0.3
v 0.3 0.2 0.2
v 0.3 0.2 0.1
v 0.3 0.2 0
v 0.3 0.2 -0.2
v 0.3 0.3 0.3
v 0.3 0.3 0.2
v 0.3 0.3 -0.2
v 0.3 0.3 -0.3
v 0.3 0.5 0.1
v 0.3 0.5 -0.2
v 0.3 0.6 0.2
v 0.3 0.6 -0.3
v 0.4 0.2 0.1
v 0.4 0.2 -0.2
v 0.4 0.5 0.1
v 0.4 0.5 -0.2
v -0.2 0.2 0.3
v -0.2 0.3 0.3
v -0.1 0.3 0.3
v -0.1 0.5 0.3
v 0.2 0.3 0.3
v 0.2 0.5 0.3
v 0.3 0.2 0.3
v 0.3 0.3 0.3
v -0.2 0.1 0.2
v -0.2 0.2 0.2
v -0.2 0.3 0.2
v -0.2 0.6 0.2
v -0.1 0.3 0.2
v -0.1 0.5 0.2
v 0.2 0.3 0.2
v 0.2 0.5 0.2
v 0.3 0.1 0.2
v 0.3 0.2 0.2
v 0.3 0.3 0.2
v 0.3 0.6 0.2
v -0.3 0.2 0.1
v -0.3 0.3 0.1
v -0.3 0.5 0.1
v -0.2 0 0.1
v -0.2 0.1 0.1
v -0.2 0.2 0.1
v -0.2 0.3 0.1
v -0.2 0.5 0.1
v -0.1 0 0.1
v -0.1 0.1 0.1
v -0.1 0.6 0.1
v -0.1 0.7 0.1
v 0.2 0 0.1
v 0.2 0.1 0.1
v 0.2 0.6 0.1
v 0.2 0.7 0.1
v 0.3 0 0.1
v 0.3 0.1 0.1
v 0.3 0.2 0.1
v 0.3 0.5 0.1
v 0.4 0.2 0.1
v 0.4 0.5 0.1
v -0.2 0 0
v -0.2 0.1 0
v -0.1 0 0
v -0.1 0.1 0
v 0.2 0 0
v 0.2 0.1 0
v 0.3 0 0
v 0.3 0.1 0
v -0.3 0.2 -0.2
v -0.3 0.3 -0.2
v -0.3 0.5 -0.2
v -0.2 0.2 -0.2
v -0.2 0.3 -0.2
v -0.2 0.4 -0.2
v -0.2 0.5 -0.2
v -0.1 0 -0.2
v -0.1 0.1 -0.2
v -0.1 0.6 -0.2
v -0.1 0.7 -0.2
v 0 0.6 -0.2
v 0 0.7 -0.2
v 0.1 0.6 -0.2
v 0.1 0.7 -0.2
v 0.2 0 -0.2
v 0.2 0.1 -0.2
v 0.2 0.6 -0.2
v 0.2 0.7 -0.2
v 0.3 0.2 -0.2
v 0.3 0.3 -0.2
v 0.3 0.5 -0.2
v 0.4 0.2 -0.2
v 0.4 0.5 -0.2
v -0.2 0.1 -0.3
v -0.2 0.4 -0.3
v -0.2 0.6 -0.3
v -0.1 0.2 -0.3
v -0.1 0.4 -0.3
v -0.1 0.5 -0.3
v 0 0.5 -0.3
v 0 0.6 -0.3
v 0.1 0.5 -0.3
v 0.1 0.6 -0.3
v 0.2 0.2 -0.3
v 0.2 0.3 -0.3
v 0.2 0.4 -0.3
v 0.2 0.5 -0.3
v 0.3 0.1 -0.3
v 0.3 0.3 -0.3
v 0.3 0.6 -0.3
v -0.1 0.2 -0.4
v -0.1 0.5 -0.4
v 0.1 0.4 -0.4
v 0.1 0.5 -0.4
v 0.2 0.2 -0.4
v 0.2 0.4 -0.4
v 0.2 0.5 -0.4
v -0.2 0 0.1
v -0.1 0 0.1
v 0.2 0 0.1
v 0.3 0 0.1
v -0.2 0 0
v -0.1 0 0
v 0.2 0 0
v 0.3 0 0
v -0.1 0 -0.2
v 0.2 0 -0.2
v -0.2 0.1 0.2
v 0.3 0.1 0.2
v -0.2 0.1 0.1
v -0.1 0.1 0.1
v 0.2 0.1 0.1
v 0.3 0.1 0.1
v -0.2 0.1 0
v -0.1 0.1 0
v 0.2 0.1 0
v 0.3 0.1 0
v -0.1 0.1 -0.2
v 0.2 0.1 -0.2
v -0.2 0.1 -0.3
v 0.3 0.1 -0.3
v -0.2 0.2 0.3
v 0.3 0.2 0.3
v -0.2 0.2 0.2
v 0.3 0.2 0.2
v -0.3 0.2 0.1
v -0.2 0.2 0.1
v 0.3 0.2 0.1
v 0.4 0.2 0.1
v -0.3 0.2 0
v -0.2 0.2 0
v 0.3 0.2 0
v -0.3 0.2 -0.1
v -0.2 0.2 -0.1
v -0.3 0.2 -0.2
v -0.2 0.2 -0.2
v 0.3 0.2 -0.2
v 0.4 0.2 -0.2
v -0.1 0.2 -0.3
v 0.2 0.2 -0.3
v -0.1 0.2 -0.4
v 0.2 0.2 -0.4
v -0.2 0.3 0.3
v -0.1 0.3 0.3
v 0.2 0.3 0.3
v 0.3 0.3 0.3
v -0.2 0.3 0.2
v -0.1 0.3 0.2
v 0.2 0.3 0.2
v 0.3 0.3 0.2
v -0.1 0.5 0.3
v 0.2 0.5 0.3
v -0.1 0.5 0.2
v 0.2 0.5 0.2
v -0.3 0.5 0.1
v -0.2 0.5 0.1
v 0.3 0.5 0.1
v 0.4 0.5 0.1
v -0.3 0.5 -0.2
v -0.2 0.5 -0.2
v 0.3 0.5 -0.2
v 0.4 0.5 -0.2
v -0.1 0.5 -0.3
v 0 0.5 -0.3
v 0.1 0.5 -0.3
v 0.2 0.5 -0.3
v -0.1 0.5 -0.4
v 0.1 0.5 -0.4
v 0.2 0.5 -0.4
v -0.2 0.6 0.2
v 0.3 0.6 0.2
v -0.1 0.6 0.1
v 0.2 0.6 0.1
v -0.1 0.6 -0.2
v 0 0.6 -0.2
v 0.1 0.6 -0.2
v 0.2 0.6 -0.2
v -0.2 0.6 -0.3
v 0 0.6 -0.3
v 0.1 0.6 -0.3
v 0.3 0.6 -0.3
v -0.1 0.7 0.1
v 0.2 0.7 0.1
v 0 0.7 -0.1
v 0.1 0.7 -0.1
v -0.1 0.7 -0.2
v 0 0.7 -0.2
v 0.1 0.7 -0.2
v 0.2 0.7 -0.2

# faces
f 5/3/1 2/3/1 1/3/1
f 6/2/1 3/2/1 2/2/1
f 6/3/1 2/3/1 5/3/1
f 7/1/1 4/1/1 3/1/1
f 7/2/1 3/2/1 6/2/1
f 8/1/1 4/1/1 7/1/1
f 9/2/1 6/2/1 5/2/1
f 9/2/1 7/2/1 6/2/1
f 9/2/1 8/2/1 7/2/1
f 10/2/1 8/2/1 9/2/1
f 14/1/1 12/1/1 11/1/1
f 15/1/1 12/1/1 14/1/1
f 18/2/1 14/2/1 13/2/1
f 18/2/1 15/2/1 14/2/1
f 19/2/1 15/2/1 18/2/1
f 20/1/1 16/1/1 15/1/1
f 20/2/1 15/2/1 19/2/1
f 21/1/1 16/1/1 20/1/1
f 22/1/1 16/1/1 21/1/1
f 23/2/1 19/2/1 18/2/1
f 23/2/1 18/2/1 17/2/1
f 24/2/1 19/2/1 23/2/1
f 25/2/1 19/2/1 24/2/1
f 26/1/1 16/1/1 22/1/1
f 27/1/1 16/1/1 26/1/1
f 28/1/1 16/1/1 27/1/1
f 29/2/1 25/2/1 24/2/1
f 30/2/1 28/2/1 27/2/1
f 31/2/1 29/2/1 24/2/1
f 31/2/1 30/2/1 29/2/1
f 32/2/1 28/2/1 30/2/1
f 32/2/1 30/2/1 31/2/1
f 35/1/1 34/1/1 33/1/1
f 36/1/1 34/1/1 35/1/1
f 41/1/1 38/1/1 37/1/1
f 42/2/1 40/2/1 39/2/1
f 43/2/1 40/2/1 42/2/1
f 44/1/1 38/1/1 41/1/1
f 45/1/1 38/1/1 44/1/1
f 48/2/1 47/2/1 46/2/1
f 49/2/1 47/2/1 48/2/1
f 50/1/2 51/1/2 52/1/2
f 52/1/2 51/1/2 53/1/2
f 54/1/2 55/1/2 58/1/2
f 58/1/2 55/1/2 59/1/2
f 59/1/2 55/1/2 60/1/2
f 56/2/2 57/2/2 61/2/2
f 61/2/2 57/2/2 62/2/2
f 59/2/2 60/2/2 63/2/2
f 63/2/2 60/2/2 64/2/2
f 65/2/2 66/2/2 67/2/2
f 67/2/2 66/2/2 68/2/2
f 69/1/2 70/1/2 72/1/2
f 72/1/2 70/1/2 73/1/2
f 71/2/2 72/2/2 76/2/2
f 72/2/2 73/2/2 76/2/2
f 76/2/2 73/2/2 77/2/2
f 73/1/2 74/1/2 78/1/2
f 77/2/2 73/2/2 78/2/2
f 78/1/2 74/1/2 79/1/2
f 76/2/2 77/2/2 80/2/2
f 75/2/2 76/2/2 80/2/2
f 80/2/2 77/2/2 81/2/2
f 79/1/2 74/1/2 82/1/2
f 82/1/2 74/1/2 83/1/2
f 81/2/2 77/2/2 84/2/2
f 82/2/2 83/2/2 85/2/2
f 81/2/2 84/2/2 86/2/2
f 84/2/2 85/2/2 86/2/2
f 85/2/2 83/2/2 87/2/2
f 86/2/2 85/2/2 87/2/2
f 88/2/2 89/2/2 90/2/2
f 90/2/2 89/2/2 91/2/2
f 94/2/3 93/2/3 92/2/3
f 96/2/3 94/2/3 92/2/3
f 96/2/3 95/2/3 94/2/3
f 97/2/3 95/2/3 96/2/3
f 98/2/3 96/2/3 92/2/3
f 99/2/3 96/2/3 98/2/3
f 104/2/3 103/2/3 102/2/3
f 105/2/3 103/2/3 104/2/3
f 107/2/3 103/2/3 105/2/3
f 108/2/3 101/2/3 100/2/3
f 109/2/3 101/2/3 108/2/3
f 110/2/3 107/2/3 106/2/3
f 111/2/3 103/2/3 107/2/3
f 111/2/3 107/2/3 110/2/3
f 117/3/3 113/3/3 112/3/3
f 118/2/3 114/2/3 113/2/3
f 118/3/3 113/3/3 117/3/3
f 119/2/3 114/2/3 118/2/3
f 120/1/3 116/1/3 115/1/3
f 121/1/3 116/1/3 120/1/3
f 124/2/3 121/2/3 120/2/3
f 125/2/3 121/2/3 124/2/3
f 126/2/3 123/2/3 122/2/3
f 127/2/3 123/2/3 126/2/3
f 128/1/3 125/1/3 124/1/3
f 129/1/3 125/1/3 128/1/3
f 132/2/3 131/2/3 130/2/3
f 133/2/3 131/2/3 132/2/3
f 134/1/4 135/1/4 136/1/4
f 136/1/4 135/1/4 137/1/4
f 138/1/4 139/1/4 140/1/4
f 140/1/4 139/1/4 141/1/4
f 142/1/4 143/1/4 145/1/4
f 143/2/4 144/2/4 146/2/4
f 145/1/4 143/1/4 146/1/4
f 146/2/4 144/2/4 147/2/4
f 147/2/4 144/2/4 148/2/4
f 151/2/4 152/2/4 153/2/4
f 153/2/4 152/2/4 154/2/4
f 153/1/4 154/1/4 155/1/4
f 155/1/4 154/1/4 156/1/4
f 149/1/4 150/1/4 157/1/4
f 157/1/4 150/1/4 158/1/4
f 155/2/4 156/2/4 159/2/4
f 159/2/4 156/2/4 160/2/4
f 161/2/4 162/2/4 164/2/4
f 162/2/4 163/2/4 164/2/4
f 164/2/4 163/2/4 165/2/4
f 166/1/4 167/1/4 169/1/4
f 167/2/4 168/2/4 170/2/4
f 169/1/4 167/1/4 170/1/4
f 170/2/4 168/2/4 171/2/4
f 171/2/4 168/2/4 172/2/4
f 172/2/4 168/2/4 173/2/4
f 172/1/4 173/1/4 174/1/4
f 174/1/4 173/1/4 175/1/4
f 166/1/4 169/1/4 176/1/4
f 174/2/4 175/2/4 179/2/4
f 166/1/4 176/1/4 180/1/4
f 176/1/4 177/1/4 180/1/4
f 177/2/4 178/2/4 181/2/4
f 180/1/4 177/1/4 181/1/4
f 178/2/4 179/2/4 181/2/4
f 179/2/4 175/2/4 182/2/4
f 181/2/4 179/2/4 182/2/4
f 183/1/4 184/1/4 185/1/4
f 185/1/4 184/1/4 186/1/4
f 183/1/4 185/1/4 187/1/4
f 185/2/4 186/2/4 188/2/4
f 187/1/4 185/1/4 188/1/4
f 188/2/4 186/2/4 189/2/4
f 194/1/5 191/1/5 190/1/5
f 195/2/5 192/2/5 191/2/5
f 195/1/5 191/1/5 194/1/5
f 196/1/5 193/1/5 192/1/5
f 196/2/5 192/2/5 195/2/5
f 197/1/5 193/1/5 196/1/5
f 198/1/5 196/1/5 195/1/5
f 199/1/5 196/1/5 198/1/5
f 202/2/5 201/2/5 200/2/5
f 203/2/5 201/2/5 202/2/5
f 204/2/5 201/2/5 203/2/5
f 205/2/5 201/2/5 204/2/5
f 210/1/5 207/1/5 206/1/5
f 211/1/5 209/1/5 208/1/5
f 212/1/5 210/1/5 206/1/5
f 212/1/5 211/1/5 210/1/5
f 213/1/5 209/1/5 211/1/5
f 213/1/5 211/1/5 212/1/5
f 216/2/5 215/2/5 214/2/5
f 217/2/5 215/2/5 216/2/5
f 222/3/5 219/3/5 218/3/5
f 223/3/5 219/3/5 222/3/5
f 224/2/5 221/2/5 220/2/5
f 225/2/5 223/2/5 222/2/5
f 226/2/5 223/2/5 225/2/5
f 227/1/5 226/1/5 225/1/5
f 228/1/5 226/1/5 227/1/5
f 229/2/5 221/2/5 224/2/5
f 230/2/5 221/2/5 229/2/5
f 233/1/5 232/1/5 231/1/5
f 234/1/5 232/1/5 233/1/5
f 235/2/6 236/2/6 239/2/6
f 239/2/6 236/2/6 240/2/6
f 237/2/6 238/2/6 241/2/6
f 241/2/6 238/2/6 242/2/6
f 243/2/6 244/2/6 245/2/6
f 245/2/6 244/2/6 246/2/6
f 247/2/6 248/2/6 251/2/6
f 251/2/6 248/2/6 252/2/6
f 249/2/6 250/2/6 253/2/6
f 253/2/6 250/2/6 254/2/6
f 255/1/6 256/1/6 259/1/6
f 256/1/6 257/1/6 259/1/6
f 257/2/6 258/2/6 260/2/6
f 259/1/6 257/1/6 260/1/6
f 260/2/6 258/2/6 261/2/6
f 262/2/6 263/2/6 264/2/6
f 264/2/6 263/2/6 265/2/6
f 262/2/6 264/2/6 266/2/6
f 265/2/6 263/2/6 269/2/6
f 262/2/6 266/2/6 270/2/6
f 266/2/6 267/2/6 270/2/6
f 267/1/6 268/1/6 271/1/6
f 270/2/6 267/2/6 271/2/6
f 268/2/6 269/2/6 272/2/6
f 271/1/6 268/1/6 272/1/6
f 269/2/6 263/2/6 273/2/6
f 272/2/6 269/2/6 273/2/6
f 274/2/6 275/2/6 276/2/6
f 276/2/6 275/2/6 277/2/6
f 274/2/6 276/2/6 278/2/6
f 276/1/6 277/1/6 279/1/6
f 278/2/6 276/2/6 279/2/6
f 277/2/6 275/2/6 280/2/6
f 279/1/6 277/1/6 280/1/6
f 280/2/6 275/2/6 281/2/6
